<?xml version="1.0" encoding="utf-8"?>
<!-- Generator: Adobe Illustrator 16.0.0, SVG Export Plug-In . SVG Version: 6.00 Build 0)  -->
<!DOCTYPE svg PUBLIC "-//W3C//DTD SVG 1.1//EN" "http://www.w3.org/Graphics/SVG/1.1/DTD/svg11.dtd">
<svg version="1.1" id="Layer_1" xmlns="http://www.w3.org/2000/svg" xmlns:xlink="http://www.w3.org/1999/xlink" x="0px" y="0px"
	 width="85.398px" height="46.443px" viewBox="0 0 85.398 46.443" enable-background="new 0 0 85.398 46.443" xml:space="preserve">
<circle fill="#939598" cx="2.699" cy="23.559" r="1.875"/>
<circle fill="#939598" cx="22.699" cy="23.559" r="1.875"/>
<circle fill="#939598" cx="42.699" cy="23.559" r="1.875"/>
<circle fill="#939598" cx="62.699" cy="23.559" r="1.875"/>
<circle fill="#939598" cx="2.699" cy="43.559" r="1.875"/>
<circle fill="#939598" cx="22.699" cy="43.559" r="1.875"/>
<circle fill="#939598" cx="42.699" cy="43.559" r="1.875"/>
<circle fill="#939598" cx="62.699" cy="43.559" r="1.875"/>
<circle fill="#939598" cx="82.699" cy="23.559" r="1.875"/>
<circle fill="#939598" cx="82.699" cy="43.559" r="1.875"/>
<polygon fill="#939598" points="5.398,2.449 1.677,0 0,1.117 3.712,3.559 0,6 1.677,7.117 5.398,4.669 5.398,4.669 5.398,4.669 
	5.398,2.449 5.398,2.449 "/>
<polygon fill="#939598" points="25.398,2.449 21.677,0 20,1.117 23.712,3.559 20,6 21.677,7.117 25.398,4.669 25.398,4.669 
	25.398,4.669 25.398,2.449 25.398,2.449 "/>
<polygon fill="#939598" points="45.398,2.449 41.677,0 40,1.117 43.712,3.559 40,6 41.677,7.117 45.398,4.669 45.398,4.669 
	45.398,4.669 45.398,2.449 45.398,2.449 "/>
<polygon fill="#939598" points="65.398,2.449 61.677,0 60,1.117 63.712,3.559 60,6 61.677,7.117 65.398,4.669 65.398,4.669 
	65.398,4.669 65.398,2.449 65.398,2.449 "/>
<polygon fill="#939598" points="85.398,2.449 81.677,0 80,1.117 83.712,3.559 80,6 81.677,7.117 85.398,4.669 85.398,4.669 
	85.398,4.669 85.398,2.449 85.398,2.449 "/>
</svg>
