<?xml version="1.0" encoding="utf-8"?>
<!-- Generator: Adobe Illustrator 16.0.0, SVG Export Plug-In . SVG Version: 6.00 Build 0)  -->
<!DOCTYPE svg PUBLIC "-//W3C//DTD SVG 1.1//EN" "http://www.w3.org/Graphics/SVG/1.1/DTD/svg11.dtd">
<svg version="1.1" id="Layer_1" xmlns="http://www.w3.org/2000/svg" xmlns:xlink="http://www.w3.org/1999/xlink" x="0px" y="0px"
	 width="150px" height="12.774px" viewBox="0 0 150 12.774" enable-background="new 0 0 150 12.774" xml:space="preserve">
<g>
	<polygon fill="#939598" points="90.205,0 85.223,0 79.726,8.355 82.231,12.122 	"/>
	<polygon fill="#939598" points="70.274,0 65.291,0 59.793,8.355 62.299,12.122 	"/>
	<polygon fill="#939598" points="50.342,0 45.359,0 39.862,8.355 42.368,12.122 	"/>
	<polygon fill="#939598" points="30.41,0 25.428,0 19.931,8.355 22.437,12.122 	"/>
	<polygon fill="#939598" points="150,0 145.018,0 139.52,8.355 142.025,12.122 	"/>
	<polygon fill="#939598" points="130.068,0 125.085,0 119.589,8.355 122.094,12.122 	"/>
	<polygon fill="#939598" points="110.136,0 105.154,0 99.657,8.355 102.163,12.122 	"/>
	<polygon fill="#939598" points="2.505,12.122 10.479,0 5.496,0 0,8.355 	"/>
</g>
</svg>
